<?xml version="1.0" encoding="utf-8"?>
<!-- Generator: Adobe Illustrator 24.2.1, SVG Export Plug-In . SVG Version: 6.00 Build 0)  -->
<svg version="1.1" id="Layer_1" xmlns="http://www.w3.org/2000/svg" xmlns:xlink="http://www.w3.org/1999/xlink" x="0px" y="0px"
	 viewBox="0 0 182 182.3" style="enable-background:new 0 0 182 182.3;" xml:space="preserve">
<style type="text/css">
	.st0{fill:#06754B;}
	.st1{fill:#007E4E;}
	.st2{fill:#FFFFFF;}
	.st3{font-family:'ArialMT';}
	.st4{font-size:18px;}
</style>
<path id="Path_82" class="st0" d="M162.2,165.2c-27.9,22.8-115,22.8-142.3,0c-27.9-22.8-25-120.1,0-145.7s117.3-25.6,142.3,0
	S190.1,142.4,162.2,165.2z"/>
<path id="Path_83" class="st1" d="M91.6,125.4c-25,19.9-52.9,30.2-79.1,30.7c-19.4-33-15.4-113.3,7.4-136.6
	c20.5-21.1,84.8-25,121.8-12C150.8,45.1,132,92.9,91.6,125.4z"/>
<g>
	<g>
		<g>
			<g>
				<path class="st2" d="M120.7,45.1H67.7c-1.8,0-3.2,1.4-3.2,3.2v1.1c-1.8,0-3.2,1.4-3.2,3.2v1.1c-1.8,0-3.2,1.4-3.2,3.2V95
					c0,1.8,1.4,3.2,3.2,3.2h53.1c1.8,0,3.2-1.4,3.2-3.2v-1.1c1.8,0,3.2-1.4,3.2-3.2v-1.1c1.8,0,3.2-1.4,3.2-3.2V48.3
					C123.9,46.5,122.5,45.1,120.7,45.1z M115.4,95c0,0.6-0.5,1.1-1.1,1.1H61.3c-0.6,0-1.1-0.5-1.1-1.1V67.6l17.2,24.8
					c0.3,0.5,1,0.6,1.5,0.3c0.1-0.1,0.2-0.2,0.3-0.3l18.2-26.3l18,26.1V95z M115.4,88.4L98.3,63.6c-0.4-0.5-1.1-0.6-1.5-0.2
					c-0.1,0.1-0.1,0.1-0.2,0.2L78.3,90l-18-26.1v-7.1c0-0.6,0.5-1.1,1.1-1.1h53.1c0.6,0,1.1,0.5,1.1,1.1V88.4z M118.6,90.8
					c0,0.6-0.5,1.1-1.1,1.1v-35c0-1.8-1.4-3.2-3.2-3.2h-51v-1.1c0-0.6,0.5-1.1,1.1-1.1h53.1c0.6,0,1.1,0.5,1.1,1.1V90.8z
					 M121.8,86.5c0,0.6-0.5,1.1-1.1,1.1v-35c0-1.8-1.4-3.2-3.2-3.2h-51v-1.1c0-0.6,0.5-1.1,1.1-1.1h53.1c0.6,0,1.1,0.5,1.1,1.1V86.5
					z"/>
			</g>
		</g>
		<g>
			<g>
				<path class="st2" d="M66.6,57.9c-2.3,0-4.2,1.9-4.2,4.2s1.9,4.2,4.2,4.2s4.2-1.9,4.2-4.2S68.9,57.9,66.6,57.9z M66.6,64.2
					c-1.2,0-2.1-1-2.1-2.1c0-1.2,1-2.1,2.1-2.1s2.1,1,2.1,2.1C68.7,63.3,67.8,64.2,66.6,64.2z"/>
			</g>
		</g>
	</g>
	<text transform="matrix(1 0 0 1 30.9828 131.3148)" class="st2 st3 st4">Upload images</text>
	<g>
		<circle class="st2" cx="120.3" cy="92.2" r="17.3"/>
		<g>
			<g>
				<g>
					<path class="st0" d="M128.8,94.4v5.5c0,0.4-0.4,0.8-0.8,0.8h-15.4c-0.4,0-0.8-0.4-0.8-0.8v-5.5h-1.6v5.5c0,1.3,1.1,2.4,2.4,2.4
						H128c1.3,0,2.4-1.1,2.4-2.4v-5.5H128.8z"/>
				</g>
			</g>
			<g>
				<g>
					<polygon class="st0" points="120.3,82.2 115.5,87 116.6,88.1 119.6,85.2 119.6,97.4 121.1,97.4 121.1,85.2 124.1,88.1 
						125.2,87 					"/>
				</g>
			</g>
		</g>
	</g>
</g>
</svg>
