<?xml version="1.0" encoding="utf-8"?>
<!-- Generator: Adobe Illustrator 24.2.1, SVG Export Plug-In . SVG Version: 6.00 Build 0)  -->
<svg version="1.1" id="Layer_1" xmlns="http://www.w3.org/2000/svg" xmlns:xlink="http://www.w3.org/1999/xlink" x="0px" y="0px"
	 viewBox="0 0 300 100" style="enable-background:new 0 0 300 100;" xml:space="preserve">
<style type="text/css">
	.st0{fill:#06754B;}
	.st1{fill:#FFFFFF;}
	.st2{font-family:'ArialMT';}
	.st3{font-size:21px;}
</style>
<path class="st0" d="M289.8,100H10.2C4.6,100,0,95.4,0,89.8V10.2C0,4.6,4.6,0,10.2,0h279.6c5.6,0,10.2,4.6,10.2,10.2v79.6
	C300,95.4,295.4,100,289.8,100z"/>
<text transform="matrix(1 0 0 1 103.3036 34.9532)" class="st1 st2 st3">Download</text>
<g>
	<g>
		<g>
			<g>
				<path class="st1" d="M166.5,65.6l-4.4-9.3c-0.1-0.3-0.4-0.4-0.7-0.4h-3.7c-0.4,0-0.8,0.3-0.8,0.8s0.3,0.8,0.8,0.8h3.2l3.6,7.7
					h-4.4c-2,0-3.8,1.2-4.6,3c-0.6,1.3-1.9,2-3.2,2h-4.5c-1.4,0-2.6-0.8-3.2-2c-0.8-1.8-2.6-3-4.6-3h-4.3l4.2-7.7h2.5
					c0.4,0,0.8-0.3,0.8-0.8c0-0.4-0.3-0.8-0.8-0.8h-2.9c-0.3,0-0.5,0.1-0.7,0.3l-5.1,9.3c-0.1,0.1-0.1,0.2-0.2,0.3v9.6
					c0.1,2.2,1.8,3.9,4,3.9h25.3c2.2,0,3.9-1.8,4-3.9v-9.6C166.6,65.8,166.6,65.7,166.5,65.6z M165.1,75.5c-0.1,1.3-1.1,2.4-2.4,2.4
					h-25.3c-1.3,0-2.4-1.1-2.4-2.4v-8.8h4.9c1.4,0,2.6,0.8,3.2,2c0.8,1.8,2.6,3,4.6,3h4.5c2,0,3.8-1.2,4.6-3c0.6-1.3,1.9-2,3.2-2
					h4.9V75.5L165.1,75.5z"/>
				<path class="st1" d="M149.5,65.7c0.3,0.3,0.7,0.3,1,0c0,0,0,0,0,0l5.3-5.3c0.3-0.3,0.2-0.8-0.2-1.1c-0.3-0.2-0.7-0.2-0.9,0
					l-3.9,3.9V48.6c0-0.4-0.3-0.8-0.8-0.8s-0.8,0.3-0.8,0.8v14.7l-3.9-3.9c-0.3-0.3-0.8-0.2-1.1,0.2c-0.2,0.3-0.2,0.7,0,0.9
					L149.5,65.7z"/>
			</g>
		</g>
	</g>
</g>
</svg>
