<?xml version="1.0" encoding="utf-8"?>
<!-- Generator: Adobe Illustrator 24.2.1, SVG Export Plug-In . SVG Version: 6.00 Build 0)  -->
<svg version="1.1" id="Layer_1" xmlns="http://www.w3.org/2000/svg" xmlns:xlink="http://www.w3.org/1999/xlink" x="0px" y="0px"
	 viewBox="0 0 300 100" style="enable-background:new 0 0 300 100;" xml:space="preserve">
<style type="text/css">
	.st0{fill:#06754B;}
	.st1{fill:#FFFFFF;}
	.st2{font-family:'ArialMT';}
	.st3{font-size:21px;}
</style>
<path class="st0" d="M290,100H10c-5.5,0-10-4.5-10-10V10C0,4.5,4.5,0,10,0h280c5.5,0,10,4.5,10,10v80C300,95.5,295.5,100,290,100z"
	/>
<g>
	<path class="st1" d="M151.6,84.7h1v1h-1V84.7z"/>
	<path class="st1" d="M151.6,84.7h1v1h-1V84.7z"/>
	<path class="st1" d="M151.6,86.7h1v1h-1V86.7z"/>
	<path class="st1" d="M151.6,82.6h1v1h-1V82.6z"/>
	<path class="st1" d="M151.6,84.7h1v1h-1V84.7z"/>
	<path class="st1" d="M151.6,84.7h1v1h-1V84.7z"/>
	<path class="st1" d="M151.6,86.7h1v1h-1V86.7z"/>
	<path class="st1" d="M151.6,82.6h1v1h-1V82.6z"/>
	<path class="st1" d="M140.5,67.5c-0.1,0-0.3,0.1-0.4,0.1l-2.6,2.6h-1c-0.2-0.6-0.8-1.1-1.6-1.1c-0.9,0-1.6,0.8-1.6,1.6
		c0,0.9,0.8,1.6,1.6,1.6c0.8,0,1.3-0.5,1.6-1.1h1.2c0.1,0,0.3-0.1,0.4-0.1l2.6-2.6h8.7v2.9l-4.7,2.1c-0.2,0.1-0.3,0.3-0.3,0.5v4.5
		c0,0.2,0.1,0.4,0.3,0.5l5,2.2c0.1,0,0.1,0.1,0.2,0.1s0.1,0,0.2-0.1l5-2.2c0.2-0.1,0.3-0.3,0.3-0.5v-4.5c0-0.2-0.1-0.4-0.3-0.5
		l-4.7-2.1v-2.9h1.6v0.5c0,1.5,1.2,2.8,2.8,2.8c0.3,0,0.5-0.3,0.5-0.5v-2.8h3.6l2.6,2.6c0.1,0.1,0.3,0.1,0.4,0.1h1.2
		c0.2,0.6,0.8,1.1,1.6,1.1c0.9,0,1.6-0.8,1.6-1.6c0-0.9-0.8-1.6-1.6-1.6c-0.8,0-1.3,0.5-1.6,1.1h-1l-2.6-2.6
		c-0.1-0.1-0.3-0.1-0.4-0.1h-1.7c0.3-0.3,0.4-0.7,0.5-1.1h5.2c0.2,0.6,0.8,1.1,1.6,1.1c0.9,0,1.6-0.8,1.6-1.6s-0.8-1.6-1.6-1.6
		c-0.8,0-1.3,0.5-1.6,1.1h-5.2c-0.1-0.3-0.2-0.7-0.4-1l4.2-4.2c0.1-0.1,0.1-0.3,0.1-0.4v-1.6h3.9c0.3,0,0.5-0.3,0.5-0.5V52
		c0-0.1-0.1-0.3-0.1-0.4l-3.4-3.4c-0.1-0.1-0.3-0.1-0.4-0.1h-5.6c-0.3,0-0.5,0.3-0.5,0.5v8.9c0,0.3,0.3,0.5,0.5,0.5h3.9v1.4l-4,4
		c-0.3-0.2-0.6-0.3-1-0.4c0-0.5-0.2-1.2-1-2.1c-0.5-0.5-1.2-0.8-1.9-0.8c-0.3,0-0.6,0.1-1,0.2c-0.4-0.6-1-1.1-1.8-1.2v-1.2h3.9
		c0.3,0,0.5-0.3,0.5-0.5V52c0-0.1-0.1-0.3-0.1-0.4l-3.4-3.4c-0.1-0.1-0.3-0.1-0.4-0.1h-5.6c-0.3,0-0.5,0.3-0.5,0.5v8.9
		c0,0.3,0.3,0.5,0.5,0.5h3.9v1.2c-0.8,0.1-1.4,0.6-1.8,1.2c-0.3-0.1-0.6-0.2-1-0.2c-0.7,0-1.4,0.3-1.9,0.8c-0.8,0.8-1,1.4-1,2.1
		c-0.3,0.1-0.7,0.2-1,0.4l-4-4v-1.4h3.9c0.3,0,0.5-0.3,0.5-0.5V52c0-0.1-0.1-0.3-0.1-0.4l-3.4-3.4c-0.1-0.1-0.3-0.1-0.4-0.1h-5.6
		c-0.3,0-0.5,0.3-0.5,0.5v8.9c0,0.3,0.3,0.5,0.5,0.5h3.9v1.6c0,0.1,0.1,0.3,0.1,0.4l4.2,4.2c-0.2,0.3-0.3,0.6-0.4,1h-5.2
		c-0.2-0.6-0.8-1.1-1.6-1.1c-0.9,0-1.6,0.8-1.6,1.6s0.8,1.6,1.6,1.6c0.8,0,1.3-0.5,1.6-1.1h5.2c0.1,0.4,0.3,0.8,0.5,1.1L140.5,67.5
		L140.5,67.5z M135,71.5c-0.3,0-0.5-0.3-0.5-0.5s0.3-0.5,0.5-0.5s0.5,0.3,0.5,0.5S135.3,71.5,135,71.5z M145.5,75.1l3.9,1.7V80
		l-3.9-1.7V75.1z M150.5,80.1v-3.2l3.9-1.7v3.2L150.5,80.1z M153.6,74.3l-3.6,1.6l-3.6-1.6l3.1-1.4v1.4h1.1v-1.4L153.6,74.3z
		 M165.1,70.4c0.3,0,0.5,0.3,0.5,0.5s-0.3,0.5-0.5,0.5c-0.3,0-0.5-0.3-0.5-0.5S164.7,70.4,165.1,70.4z M163.4,50l1.4,1.4h-1.4V50z
		 M157.8,49.2h4.5V52c0,0.3,0.3,0.5,0.5,0.5h2.8V57h-7.8L157.8,49.2L157.8,49.2z M151.7,50l1.4,1.4h-1.4V50z M146.2,49.2h4.5V52
		c0,0.3,0.3,0.5,0.5,0.5h2.8V57h-7.8V49.2z M140,50l1.4,1.4H140V50z M134.4,49.2h4.5V52c0,0.3,0.3,0.5,0.5,0.5h2.8V57h-7.8V49.2z
		 M165.1,65.4c0.3,0,0.5,0.3,0.5,0.5s-0.3,0.5-0.5,0.5c-0.3,0-0.5-0.3-0.5-0.5C164.5,65.6,164.7,65.4,165.1,65.4z M144.4,64.3
		L144.4,64.3c0.3,0,0.4-0.1,0.5-0.2s0.1-0.3,0.1-0.5c-0.1-0.4-0.1-0.9,0.5-1.6c0.3-0.3,0.7-0.5,1.1-0.5c0.3,0,0.6,0.1,0.9,0.3
		c0.1,0.1,0.3,0.1,0.5,0.1c0.1-0.1,0.3-0.2,0.3-0.3c0.2-0.7,0.9-1.1,1.6-1.1s1.3,0.5,1.6,1.1c0.1,0.1,0.2,0.3,0.3,0.3
		c0.1,0.1,0.3,0,0.5-0.1c0.3-0.2,0.5-0.3,0.9-0.3c0.3,0,0.8,0.1,1.1,0.5c0.8,0.8,0.7,1.2,0.5,1.6c-0.1,0.1,0,0.3,0.1,0.5
		c0.1,0.1,0.3,0.2,0.5,0.2h0.1c0.5,0,0.9,0.2,1.2,0.5c0.3,0.3,0.5,0.8,0.4,1.3c-0.1,0.8-0.8,1.5-1.8,1.5h-0.5
		c-0.3,0-0.5,0.3-0.5,0.5v2.7c-0.6-0.2-1.1-0.8-1.1-1.6v-1.1c0-0.3-0.3-0.5-0.5-0.5v-0.9l1-1c0.1-0.1,0.1-0.3,0.1-0.4v-1.6h-1.1v1.4
		l-1,1c-0.1,0.1-0.1,0.3-0.1,0.4v1.1h-1.1v-5h-1.1v5h-1.1v-1.1c0-0.1-0.1-0.3-0.1-0.4l-1-1v-1.4h-1.1v1.6c0,0.1,0.1,0.3,0.1,0.4l1,1
		v0.9h-2.7c-0.9,0-1.6-0.7-1.8-1.5c-0.1-0.5,0.1-1,0.4-1.3C143.6,64.5,144,64.3,144.4,64.3L144.4,64.3z M135,66.4
		c-0.3,0-0.5-0.3-0.5-0.5s0.3-0.5,0.5-0.5s0.5,0.3,0.5,0.5C135.5,66.2,135.3,66.4,135,66.4z"/>
</g>
<text transform="matrix(1 0 0 1 126.4669 34.9825)" class="st1 st2 st3">Train</text>
</svg>
